<?xml version="1.0" encoding="UTF-8"?>
<svg id="Layer_1" data-name="Layer 1" xmlns="http://www.w3.org/2000/svg" xmlns:xlink="http://www.w3.org/1999/xlink" viewBox="0 0 966.13 389.97">
  <defs>
    <style>
      .cls-1 {
        fill: none;
      }

      .cls-2 {
        fill: #ffffff;
      }

      .cls-3 {
        clip-path: url(#clippath);
      }
    </style>
    <clipPath id="clippath">
      <rect class="cls-1" x="27.55" y="10.2" width="911.03" height="369.58"/>
    </clipPath>
  </defs>
  <g class="cls-3">
    <path class="cls-2" d="M938.58,194.89c0-20.1-16.29-36.39-36.39-36.39h-84.7V49.77c0-20.1-16.29-36.39-36.39-36.39s-36.39,16.29-36.39,36.39v108.73h-151.92V49.77c0-20.1-16.29-36.39-36.39-36.39s-36.39,16.29-36.39,36.39v290.24c0,20.09,16.29,36.39,36.39,36.39s36.39-16.29,36.39-36.39v-108.74h151.92v108.74c0,20.09,16.29,36.39,36.39,36.39s36.39-16.29,36.39-36.39v-108.74h84.7c20.09,0,36.39-16.29,36.39-36.39"/>
    <path class="cls-2" d="M339.09,10.2h-158.87c-19.18,0-34.74,16.12-34.74,35.98s15.56,35.95,34.74,35.95h158.87c21.34,0,38.68,17.25,38.68,38.43s-17.35,38.43-38.68,38.43l-276.8.03c-19.2.03-34.74,16.12-34.74,35.98s15.56,35.98,34.74,35.98h276.8c21.34,0,38.68,17.22,38.68,38.39s-17.35,38.43-38.68,38.43h-158.87c-19.18,0-34.74,16.12-34.74,35.98s15.56,35.98,34.74,35.98h158.87c59.64,0,108.17-49.53,108.17-110.4,0-28.65-10.76-54.75-28.36-74.41,17.6-19.63,28.36-45.77,28.36-74.41,0-60.83-48.53-110.36-108.17-110.36"/>
  </g>
</svg>